<svg width="17" height="16" viewBox="0 0 17 16" fill="none" xmlns="http://www.w3.org/2000/svg">
<g clip-path="url(#clip0_350_704)">
<path d="M5.52723 5.29293C4.80765 5.97979 4.34204 6.94949 4.34204 8C4.34204 9.0505 4.78649 10.0202 5.52723 10.7071C6.2468 11.3939 7.26268 11.8384 8.3632 11.8384C9.46373 11.8384 10.4796 11.3939 11.1992 10.7071C11.9188 10.0202 12.3844 9.0505 12.3844 8C12.3844 6.94949 11.9399 5.97979 11.1992 5.29293C10.4796 4.60606 9.46373 4.16161 8.3632 4.16161C7.26268 4.16161 6.2468 4.58586 5.52723 5.29293ZM10.4373 6.0202C10.9664 6.52525 11.2838 7.23232 11.2838 8C11.2838 8.76767 10.9664 9.47474 10.4373 9.97979C9.90818 10.4848 9.16744 10.7879 8.3632 10.7879C7.55897 10.7879 6.81823 10.4848 6.28913 9.97979C5.76003 9.47474 5.44257 8.76767 5.44257 8C5.44257 7.23232 5.76003 6.52525 6.28913 6.0202C6.81823 5.51515 7.55897 5.21212 8.3632 5.21212C9.16744 5.21212 9.90818 5.51515 10.4373 6.0202Z" fill="#131313"/>
<path d="M7.81323 0.88843L7.81323 2.44399C7.81323 2.72681 8.0672 2.96924 8.3635 2.96924C8.65979 2.96924 8.91376 2.72681 8.91376 2.44399L8.91376 0.88843C8.91376 0.605602 8.65979 0.363178 8.3635 0.363178C8.0672 0.363178 7.81323 0.605602 7.81323 0.88843Z" fill="#131313"/>
<path d="M13.6335 7.99965C13.6335 8.28248 13.8875 8.5249 14.1838 8.5249L15.8134 8.5249C16.1097 8.5249 16.3637 8.28248 16.3637 7.99965C16.3637 7.71682 16.1097 7.4744 15.8134 7.4744L14.1838 7.4744C13.8875 7.4744 13.6335 7.71682 13.6335 7.99965Z" fill="#131313"/>
<path d="M13.2524 2.6058L12.0884 3.71692C11.8768 3.89873 11.8768 4.24217 12.0884 4.44419C12.3001 4.64621 12.6387 4.64621 12.8503 4.44419L14.0143 3.33308C14.226 3.13106 14.226 2.80782 14.0143 2.6058C13.8027 2.40378 13.4641 2.40378 13.2524 2.6058Z" fill="#131313"/>
<path d="M0.363525 7.99965C0.363525 8.28248 0.617493 8.5249 0.913789 8.5249L2.54342 8.5249C2.83971 8.5249 3.09368 8.28248 3.09368 7.99965C3.09368 7.71682 2.83971 7.4744 2.54342 7.4744L0.913789 7.4744C0.617493 7.4744 0.363525 7.71682 0.363525 7.99965Z" fill="#131313"/>
<path d="M2.71293 2.58579C2.50129 2.78781 2.50129 3.11104 2.71293 3.31306L3.87695 4.42417C4.08859 4.62619 4.42722 4.62619 4.63886 4.42417C4.8505 4.24235 4.8505 3.89892 4.63886 3.6969L3.47483 2.58579C3.26319 2.38377 2.92457 2.38377 2.71293 2.58579Z" fill="#131313"/>
<path d="M7.81323 13.5554L7.81323 15.111C7.81323 15.3938 8.0672 15.6362 8.3635 15.6362C8.65979 15.6362 8.91376 15.414 8.91376 15.111L8.91376 13.5554C8.91376 13.2726 8.65979 13.0302 8.3635 13.0302C8.0672 13.0302 7.81323 13.2726 7.81323 13.5554Z" fill="#131313"/>
<path d="M12.0884 11.5755C11.8768 11.7573 11.8768 12.1008 12.0884 12.3028L13.2524 13.4139C13.4641 13.6159 13.8027 13.6159 14.0143 13.4139C14.226 13.2119 14.226 12.8887 14.0143 12.6866L12.8503 11.5755C12.6387 11.3735 12.3001 11.3735 12.0884 11.5755Z" fill="#131313"/>
<path d="M3.87695 11.5755L2.71293 12.6866C2.50129 12.8887 2.50129 13.2119 2.71293 13.4139C2.92457 13.6159 3.26319 13.6159 3.47483 13.4139L4.63886 12.3028C4.8505 12.1008 4.8505 11.7776 4.63886 11.5755C4.42722 11.3735 4.08859 11.3735 3.87695 11.5755Z" fill="#131313"/>
</g>
<defs>
<clipPath id="clip0_350_704">
<rect width="15.2727" height="16" fill="white" transform="translate(0.363525 15.6362) rotate(-90)"/>
</clipPath>
</defs>
</svg>
